<svg version="1.1" id="Layer_1" xmlns="http://www.w3.org/2000/svg" xmlns:xlink="http://www.w3.org/1999/xlink" x="0px" y="0px"
	 width="100%" viewBox="0 0 1024 1024" enable-background="new 0 0 1024 1024" xml:space="preserve">
<path fill="#000000" opacity="1.000000" stroke="none" 
	d="
M760.864746,597.279907 
	C760.434631,615.220703 759.932129,632.707153 760.866333,650.188354 
	C761.061951,653.848999 759.430176,655.931274 756.368530,657.720642 
	C732.212585,671.838745 708.137329,686.094849 684.026733,700.290710 
	C636.379272,728.344788 588.729370,756.394897 541.057373,784.407288 
	C539.117920,785.546814 537.365967,787.312500 534.791626,787.106628 
	C533.127747,785.587219 533.783936,783.637085 533.782593,781.913574 
	C533.738281,724.928772 533.783691,667.943909 533.636597,610.959473 
	C533.625427,606.615540 534.962097,603.952820 538.583740,601.568604 
	C580.047180,574.272644 621.398071,546.806152 662.830444,519.462830 
	C672.688110,512.957214 672.793213,513.050171 663.117737,506.622650 
	C643.691956,493.717896 624.240662,480.851624 604.819336,467.940216 
	C603.619934,467.142792 602.063293,466.640411 601.434875,464.124908 
	C653.885437,433.429291 706.520935,402.625458 759.085388,371.863220 
	C761.548218,374.434448 760.940674,377.044159 760.931458,379.447418 
	C760.793945,415.432800 760.487488,451.417908 760.462891,487.403259 
	C760.441406,518.886963 760.726807,550.370850 760.867310,581.854675 
	C760.889587,586.844116 760.863037,591.833862 760.864746,597.279907 
z"/>
<path fill="#000000" opacity="1.000000" stroke="none" 
	d="
M577.083740,542.123779 
	C473.439697,609.964966 370.093842,677.604858 266.990570,745.085938 
	C264.385345,742.891846 265.033936,740.929138 265.029358,739.195618 
	C264.957855,712.200317 264.989594,685.204590 264.838196,658.209839 
	C264.819031,654.792786 265.947601,652.724304 268.842712,650.917358 
	C339.072876,607.084045 409.254883,563.173584 479.445374,519.276733 
	C480.010437,518.923340 480.577606,518.572937 481.135742,518.208862 
	C487.383148,514.133240 487.467773,511.642853 481.266479,507.762848 
	C442.573792,483.553833 403.849762,459.394897 365.147125,435.201721 
	C333.081940,415.157684 301.042328,395.072815 268.956116,375.062531 
	C266.286987,373.397980 265.020233,371.369232 265.040588,368.156525 
	C265.205322,342.164368 265.247253,316.171448 265.377411,290.179016 
	C265.391235,287.415009 264.586945,284.548187 266.583160,280.867859 
	C384.715881,358.048584 502.706207,435.136322 621.741394,512.906677 
	C606.470398,522.895508 591.926208,532.408997 577.083740,542.123779 
z"/>
<path fill="#000000" opacity="1.000000" stroke="none" 
	d="
M490.908447,393.142914 
	C449.985565,365.983368 409.364716,339.019409 369.077332,312.276764 
	C369.295074,309.345245 371.145477,308.886353 372.494110,308.089203 
	C417.949005,281.224792 463.443146,254.426727 508.861206,227.500366 
	C512.297302,225.463303 514.915894,226.081467 518.039795,227.932602 
	C551.427917,247.717300 584.879395,267.394928 618.289978,287.141724 
	C655.138733,308.920685 691.963745,330.739929 728.795105,352.548309 
	C730.194153,353.376648 731.902039,353.851959 732.544922,355.618835 
	C732.223999,357.421051 730.593140,357.785126 729.349854,358.507690 
	C679.526672,387.465271 629.666382,416.359375 579.915405,445.440338 
	C576.013306,447.721252 573.327881,447.597229 569.603333,445.109558 
	C543.563110,427.716705 517.360840,410.566406 490.908447,393.142914 
z"/>
<path fill="#000000" opacity="1.000000" stroke="none" 
	d="
M452.826416,658.792358 
	C465.854675,650.570923 477.800446,641.310425 491.828857,633.426270 
	C491.828857,685.267273 491.828857,736.049927 491.828857,788.419617 
	C450.329071,764.055908 409.601288,740.145386 367.515076,715.437378 
	C396.691711,696.060303 424.606262,677.521362 452.826416,658.792358 
z"/>
</svg>